{"glyphs":{":":{"x_min":0,"x_max":278,"ha":278,"o":"m 111 516 l 213 516 l 213 410 l 111 410 z m 111 106 l 213 106 l 213 0 l 111 0 z"},"$":{"x_min":0,"x_max":556,"ha":556,"o":"m 414 112 q 430 141 430 180 q 430 241 385 272 q 359 291 298 308 l 298 51 q 382 55 414 112 z m 251 408 l 251 638 q 187 635 160 599 q 133 562 133 522 q 133 474 165 446 q 197 419 251 408 z m 252 710 l 252 775 l 298 775 l 298 711 q 396 705 448 654 q 500 604 502 521 l 417 521 q 413 558 396 584 q 366 634 298 636 l 298 399 q 412 367 452 339 q 518 293 518 204 q 518 74 434 19 q 387 -11 298 -21 l 298 -116 l 252 -116 l 252 -21 q 110 -12 59 80 q 31 129 31 213 l 118 213 q 122 146 139 115 q 169 60 251 53 l 251 319 q 146 339 95 386 q 45 433 45 516 q 45 590 99 650 q 154 709 252 710 z"},"?":{"x_min":0,"x_max":556,"ha":556,"o":"m 241 102 l 338 102 l 338 0 l 241 0 z m 299 727 q 396 727 453 672 q 511 617 511 531 q 511 479 490 447 q 469 415 404 353 q 357 307 344 276 q 330 244 330 183 l 243 183 q 243 252 259 295 q 276 338 332 393 l 371 432 q 389 448 399 466 q 419 498 419 532 q 419 580 390 615 q 362 650 296 650 q 214 650 183 590 q 166 556 163 493 l 76 493 q 76 598 136 662 q 195 727 299 727 z"},"<":{"x_min":0,"x_max":584,"ha":584,"o":"m 14 296 l 584 520 l 584 432 l 118 255 l 584 79 l 584 -9 l 14 215 z"},"'":{"x_min":0,"x_max":191,"ha":191,"o":"m 165 717 l 149 430 l 92 430 l 76 717 z"},"=":{"x_min":0,"x_max":584,"ha":584,"o":"m 554 401 l 554 319 l 45 319 l 45 401 z m 554 192 l 554 108 l 45 108 l 45 192 z"},"a":{"x_min":0,"x_max":556,"ha":556,"o":"m 226 57 q 272 57 315 79 q 389 114 389 195 l 389 266 q 373 256 347 249 q 322 242 297 239 l 244 232 q 196 226 172 212 q 132 189 132 139 q 132 101 160 79 q 188 57 226 57 z m 345 317 q 375 321 385 342 q 391 354 391 376 q 391 421 359 441 q 327 461 268 461 q 199 461 170 424 q 154 404 149 363 l 67 363 q 69 460 130 498 q 190 536 270 536 q 362 536 419 500 q 477 465 477 391 l 477 90 q 477 76 482 68 q 488 60 506 60 q 512 60 519 60 q 526 61 535 62 l 535 -2 q 514 -8 503 -10 q 493 -11 474 -11 q 429 -11 408 21 q 397 38 393 69 q 366 34 316 8 q 266 -18 205 -18 q 132 -18 86 27 q 40 71 40 137 q 40 210 85 250 q 131 290 205 299 z m 272 536 z"},"L":{"x_min":0,"x_max":556,"ha":556,"o":"m 76 717 l 173 717 l 173 85 l 537 85 l 537 0 l 76 0 z"},"3":{"x_min":0,"x_max":556,"ha":556,"o":"m 24 215 l 116 215 q 122 147 141 116 q 175 61 265 61 q 334 61 376 98 q 418 135 418 194 q 418 266 374 295 q 330 324 251 324 q 242 324 233 323 q 224 323 215 323 l 215 400 q 229 399 238 398 q 247 398 258 398 q 307 398 339 414 q 395 441 395 511 q 395 563 357 592 q 320 620 271 620 q 183 620 149 562 q 131 529 128 470 l 42 470 q 42 548 73 603 q 126 700 262 700 q 369 700 427 653 q 486 605 486 515 q 486 450 451 410 q 430 385 396 371 q 451 356 482 313 q 513 270 513 207 q 513 107 447 44 q 381 -19 260 -19 q 136 -19 80 49 q 24 117 24 215 z"},";":{"x_min":0,"x_max":278,"ha":278,"o":"m 111 -102 q 145 -96 158 -57 q 165 -36 165 -12 q 165 -9 165 -8 q 165 -6 164 0 l 111 0 l 111 106 l 215 106 l 215 8 q 215 -44 200 -80 q 174 -137 111 -148 z m 111 516 l 215 516 l 215 410 l 111 410 z"},"J":{"x_min":0,"x_max":500,"ha":500,"o":"m 428 214 q 428 123 401 73 q 352 -19 212 -19 q 131 -19 74 25 q 17 68 17 180 l 17 231 l 108 231 l 108 180 q 108 122 135 92 q 161 62 216 62 q 293 62 317 116 q 332 148 332 239 l 332 717 l 428 717 z"},"V":{"x_min":0,"x_max":667,"ha":667,"o":"m 133 717 l 339 106 l 542 717 l 651 717 l 390 0 l 287 0 l 25 717 z"},"\"":{"x_min":0,"x_max":355,"ha":355,"o":"m 296 717 l 281 430 l 222 430 l 207 717 z m 128 717 l 114 430 l 55 430 l 40 717 z"},"7":{"x_min":0,"x_max":556,"ha":556,"o":"m 523 688 l 523 611 q 489 578 433 497 q 377 416 334 322 q 292 231 270 156 q 256 107 233 0 l 136 0 q 169 200 283 398 q 350 515 423 599 l 37 599 l 37 688 z"},"S":{"x_min":0,"x_max":667,"ha":667,"o":"m 140 231 q 143 170 168 132 q 217 61 339 61 q 394 61 438 77 q 525 107 525 185 q 525 244 489 269 q 452 293 373 311 l 275 333 q 180 354 141 380 q 72 425 72 515 q 72 611 139 673 q 206 735 329 735 q 441 735 520 681 q 599 626 599 507 l 508 507 q 500 564 477 595 q 432 651 326 651 q 240 651 202 615 q 165 579 165 531 q 165 479 208 454 q 237 438 339 415 l 439 392 q 512 375 552 347 q 620 296 620 201 q 620 82 533 30 q 447 -21 332 -21 q 198 -21 123 47 q 47 115 48 231 z m 336 737 z"},"}":{"x_min":0,"x_max":334,"ha":334,"o":"m 160 343 q 142 382 142 456 l 142 510 q 142 575 127 608 q 100 667 21 674 l 21 730 q 146 720 191 652 q 221 608 221 521 l 221 441 q 221 386 237 356 q 268 301 354 292 l 354 236 q 268 227 237 170 q 221 139 221 86 l 221 -14 q 221 -113 164 -154 q 107 -195 21 -204 l 21 -147 q 73 -140 107 -105 q 142 -70 142 -2 l 142 71 q 142 142 160 182 q 193 255 287 264 q 193 272 160 343 z"},"Z":{"x_min":0,"x_max":611,"ha":611,"o":"m 23 81 l 463 632 l 55 632 l 55 717 l 588 717 l 588 634 l 146 85 l 588 85 l 588 0 l 23 0 z m 322 717 z"},"x":{"x_min":0,"x_max":500,"ha":500,"o":"m 15 523 l 128 523 l 249 339 l 370 523 l 477 521 l 301 268 l 485 0 l 373 0 l 243 196 l 117 0 l 5 0 l 189 268 z"},")":{"x_min":0,"x_max":333,"ha":333,"o":"m 35 -204 q 112 -53 135 17 q 169 122 169 263 q 169 404 129 521 q 105 593 33 729 l 92 729 q 167 609 183 581 q 199 553 218 503 q 241 442 251 383 q 261 323 261 268 q 261 124 215 10 q 187 -62 96 -204 z"},"&":{"x_min":0,"x_max":667,"ha":667,"o":"m 350 492 q 378 525 378 565 q 378 597 357 620 q 336 643 301 643 q 247 643 226 607 q 215 588 215 566 q 215 537 231 509 q 248 482 286 438 q 332 471 350 492 z m 417 141 l 254 339 q 186 293 165 269 q 132 232 132 179 q 132 122 174 91 q 216 61 263 61 q 317 61 356 85 q 396 110 417 141 z m 129 556 q 129 625 176 671 q 223 716 302 716 q 376 716 418 674 q 460 631 460 572 q 460 503 417 452 q 392 421 332 382 l 463 226 q 476 265 481 284 q 486 303 492 338 l 575 338 q 567 269 542 206 q 517 143 517 155 l 645 0 l 531 0 l 464 82 q 424 39 391 19 q 333 -17 257 -17 q 145 -17 94 44 q 43 104 43 180 q 43 261 93 316 q 123 349 206 399 q 160 451 145 487 q 129 522 129 556 z"},"_":{"x_min":0,"x_max":556,"ha":556,"o":"m 0 -125 l 0 -76 l 556 -76 l 556 -125 z"},"v":{"x_min":0,"x_max":500,"ha":500,"o":"m 107 523 l 247 97 l 393 523 l 489 523 l 292 0 l 198 0 l 5 523 z"},"O":{"x_min":0,"x_max":778,"ha":778,"o":"m 667 615 q 738 520 738 371 q 738 210 657 104 q 561 -21 384 -21 q 218 -21 124 88 q 39 194 39 355 q 39 500 111 604 q 204 737 386 737 q 576 737 667 615 z m 639 370 q 639 496 573 573 q 506 650 392 650 q 280 650 210 574 q 140 498 140 349 q 140 229 200 148 q 260 66 396 66 q 524 66 581 158 q 639 250 639 370 z m 389 737 z"},"(":{"x_min":0,"x_max":333,"ha":333,"o":"m 296 729 q 219 580 196 510 q 162 403 162 263 q 162 121 201 4 q 226 -68 297 -204 l 238 -204 q 167 -93 150 -62 q 133 -31 113 21 q 85 94 75 176 q 69 218 69 257 q 69 401 115 514 q 144 586 235 729 z"},"C":{"x_min":0,"x_max":722,"ha":722,"o":"m 673 502 l 579 502 q 562 571 514 612 q 466 652 379 652 q 273 652 208 578 q 143 503 143 350 q 143 224 202 145 q 261 67 377 67 q 485 67 541 149 q 571 193 585 264 l 680 264 q 667 150 596 74 q 511 -19 366 -19 q 241 -19 156 57 q 44 157 44 366 q 44 525 128 626 q 219 737 378 737 q 515 737 590 665 q 665 593 673 502 z m 359 737 z"},"W":{"x_min":0,"x_max":944,"ha":944,"o":"m 124 717 l 259 134 l 421 717 l 526 717 l 688 134 l 824 717 l 930 717 l 742 0 l 640 0 l 474 595 l 308 0 l 206 0 l 18 717 z"},"A":{"x_min":0,"x_max":667,"ha":667,"o":"m 444 294 l 335 611 l 220 294 z m 285 717 l 395 717 l 655 0 l 548 0 l 476 215 l 192 215 l 114 0 l 15 0 z m 335 717 z"},"f":{"x_min":0,"x_max":278,"ha":278,"o":"m 105 683 q 136 728 224 728 q 232 728 241 727 q 250 727 261 726 l 261 646 q 248 646 241 647 q 235 647 230 647 q 190 647 182 626 q 174 605 174 521 l 261 521 l 261 451 l 173 451 l 173 0 l 86 0 l 86 451 l 14 451 l 14 521 l 86 521 l 86 603 q 88 657 105 683 z"},"Q":{"x_min":0,"x_max":778,"ha":778,"o":"m 732 2 l 684 -57 l 573 27 q 533 5 486 -8 q 439 -21 384 -21 q 217 -21 123 88 q 39 195 39 355 q 39 500 111 604 q 204 737 386 737 q 576 737 667 615 q 738 520 738 371 q 738 302 721 238 q 695 140 634 79 z m 499 86 l 420 148 l 469 208 l 562 135 q 607 186 623 249 q 639 312 639 370 q 639 496 573 573 q 506 650 392 650 q 275 650 208 576 q 140 502 140 349 q 140 219 205 143 q 270 66 396 66 q 426 66 453 70 q 479 74 499 86 z"},"w":{"x_min":0,"x_max":722,"ha":722,"o":"m 105 523 l 206 111 l 308 523 l 406 523 l 509 113 l 616 523 l 704 523 l 552 0 l 460 0 l 354 405 l 251 0 l 160 0 l 9 523 z"},"-":{"x_min":0,"x_max":333,"ha":333,"o":"m 42 324 l 287 324 l 287 233 l 42 233 z"},"E":{"x_min":0,"x_max":667,"ha":667,"o":"m 85 717 l 608 717 l 608 629 l 180 629 l 180 412 l 576 412 l 576 329 l 180 329 l 180 85 l 616 85 l 616 0 l 85 0 z m 351 717 z"},"s":{"x_min":0,"x_max":500,"ha":500,"o":"m 117 164 q 121 120 139 97 q 172 54 254 54 q 303 54 340 75 q 377 97 377 141 q 377 175 347 192 q 328 203 272 217 l 202 235 q 135 251 104 272 q 47 308 47 371 q 47 445 100 491 q 154 537 244 537 q 362 537 415 467 q 447 423 446 373 l 363 373 q 361 402 342 427 q 312 461 237 461 q 188 461 162 442 q 136 423 136 392 q 136 358 170 337 q 189 325 228 316 l 286 302 q 380 279 413 257 q 464 224 464 151 q 464 82 411 31 q 358 -20 250 -20 q 133 -20 84 33 q 36 86 32 164 z m 247 536 z"},">":{"x_min":0,"x_max":584,"ha":584,"o":"m 584 214 l 14 -9 l 14 79 l 480 255 l 14 432 l 14 520 l 584 296 z"},"l":{"x_min":0,"x_max":222,"ha":222,"o":"m 67 717 l 155 717 l 155 0 l 67 0 z"},"8":{"x_min":0,"x_max":556,"ha":556,"o":"m 396 516 q 396 555 364 588 q 333 621 269 621 q 206 621 177 588 q 149 555 149 511 q 149 462 186 434 q 222 406 272 406 q 330 406 363 439 q 396 471 396 516 z m 419 191 q 419 259 377 294 q 336 330 271 330 q 208 330 168 294 q 128 258 128 194 q 128 140 165 100 q 201 60 277 60 q 338 60 379 93 q 419 126 419 191 z m 95 409 q 57 448 57 511 q 57 589 113 645 q 170 701 274 701 q 375 701 432 648 q 489 595 489 524 q 489 459 456 418 q 437 396 398 374 q 441 354 466 328 q 513 279 513 201 q 513 108 451 44 q 389 -20 275 -20 q 173 -20 103 35 q 32 91 32 196 q 32 258 62 303 q 93 349 152 373 q 116 388 95 409 z"},"\\":{"x_min":0,"x_max":278,"ha":278,"o":"m 42 717 l 321 0 l 245 0 l -34 717 z"},"e":{"x_min":0,"x_max":556,"ha":556,"o":"m 470 441 q 496 401 505 349 q 513 312 513 233 l 129 233 q 132 154 167 106 q 202 58 276 58 q 345 58 386 103 q 409 129 419 164 l 505 164 q 502 135 483 100 q 463 64 439 42 q 399 3 340 -11 q 309 -19 269 -19 q 171 -19 103 52 q 35 124 35 251 q 35 377 104 456 q 172 535 282 535 q 338 535 390 509 q 442 482 470 441 z m 422 303 q 417 360 397 395 q 361 458 277 458 q 216 458 175 414 q 134 371 132 303 z m 274 536 z"},"b":{"x_min":0,"x_max":556,"ha":556,"o":"m 58 720 l 143 720 l 143 459 q 172 497 212 517 q 252 537 299 537 q 396 537 457 469 q 518 402 518 271 q 518 147 458 65 q 398 -17 292 -17 q 232 -17 191 12 q 167 29 139 67 l 139 0 l 58 0 z m 428 267 q 428 350 393 404 q 357 458 289 458 q 229 458 183 414 q 138 369 138 267 q 138 193 157 147 q 191 61 286 61 q 357 61 393 118 q 428 174 428 267 z"},"%":{"x_min":0,"x_max":889,"ha":889,"o":"m 852 170 q 852 100 802 50 q 752 0 682 0 q 611 0 561 50 q 511 100 511 170 q 511 240 561 290 q 611 340 682 340 q 752 340 802 290 q 852 240 852 170 z m 611 696 l 665 696 l 274 -19 l 220 -19 z m 303 508 q 303 549 274 579 q 244 608 202 608 q 161 608 131 579 q 102 550 102 508 q 102 466 131 437 q 161 407 202 407 q 244 407 274 437 q 303 466 303 508 z m 373 508 q 373 438 323 388 q 273 338 202 338 q 132 338 82 388 q 32 438 32 508 q 32 578 82 628 q 132 678 202 678 q 273 678 323 628 q 373 578 373 508 z m 782 170 q 782 211 753 241 q 723 271 682 271 q 640 271 610 241 q 581 211 581 170 q 581 128 610 99 q 640 69 682 69 q 723 69 753 99 q 782 128 782 170 z"},"m":{"x_min":0,"x_max":833,"ha":833,"o":"m 64 523 l 151 523 l 151 449 q 183 487 208 505 q 251 535 307 535 q 369 535 407 504 q 429 486 446 452 q 476 494 515 514 q 555 535 604 535 q 709 535 748 458 q 768 417 768 348 l 768 0 l 677 0 l 677 363 q 677 416 651 435 q 625 455 587 455 q 535 455 498 420 q 460 385 460 304 l 460 0 l 371 0 l 371 341 q 371 395 358 419 q 338 456 284 456 q 234 456 193 417 q 152 378 152 277 l 152 0 l 64 0 z"},"#":{"x_min":0,"x_max":556,"ha":556,"o":"m 15 274 l 128 274 l 174 442 l 61 442 l 76 499 l 189 499 l 248 717 l 320 717 l 261 499 l 369 499 l 429 717 l 501 717 l 442 499 l 555 499 l 540 442 l 427 442 l 380 274 l 494 274 l 479 217 l 367 217 l 307 0 l 235 0 l 294 217 l 185 217 l 127 0 l 54 0 l 113 217 l 0 217 z m 308 274 l 354 442 l 246 442 l 201 274 z"},",":{"x_min":0,"x_max":278,"ha":278,"o":"m 83 -102 q 117 -96 130 -55 q 138 -33 138 -12 q 138 -9 137 -6 q 137 -3 136 0 l 83 0 l 83 106 l 188 106 l 188 8 q 188 -50 164 -94 q 141 -138 83 -148 z"},"n":{"x_min":0,"x_max":556,"ha":556,"o":"m 64 523 l 148 523 l 148 449 q 185 495 227 515 q 268 535 319 535 q 430 535 469 457 q 491 415 491 335 l 491 0 l 401 0 l 401 330 q 401 377 387 407 q 364 456 302 456 q 271 456 251 449 q 215 438 188 406 q 166 380 159 353 q 152 325 152 274 l 152 0 l 64 0 z m 271 536 z"},"h":{"x_min":0,"x_max":556,"ha":556,"o":"m 64 720 l 152 720 l 152 452 q 184 492 208 508 q 251 536 314 536 q 428 536 469 456 q 491 413 491 335 l 491 0 l 400 0 l 400 330 q 400 387 386 414 q 362 457 296 457 q 241 457 197 419 q 152 382 152 277 l 152 0 l 64 0 z"},"z":{"x_min":0,"x_max":500,"ha":500,"o":"m 25 69 l 335 444 l 48 444 l 48 523 l 454 523 l 454 451 l 146 79 l 463 79 l 463 0 l 25 0 z m 251 536 z"},"B":{"x_min":0,"x_max":667,"ha":667,"o":"m 346 414 q 407 414 441 431 q 495 458 495 528 q 495 598 438 623 q 406 636 342 636 l 169 636 l 169 414 z m 378 83 q 468 83 506 135 q 530 167 530 214 q 530 292 460 320 q 423 335 362 335 l 169 335 l 169 83 z m 74 717 l 382 717 q 508 717 561 642 q 592 598 592 540 q 592 472 554 428 q 534 405 496 386 q 551 365 579 339 q 627 292 627 209 q 627 140 583 84 q 519 0 377 0 l 74 0 z"},"K":{"x_min":0,"x_max":667,"ha":667,"o":"m 76 717 l 171 717 l 171 368 l 521 717 l 655 717 l 356 428 l 663 0 l 537 0 l 286 360 l 171 250 l 171 0 l 76 0 z"},"R":{"x_min":0,"x_max":722,"ha":722,"o":"m 410 389 q 478 389 518 416 q 558 443 558 515 q 558 591 502 619 q 472 634 422 634 l 185 634 l 185 389 z m 88 717 l 420 717 q 502 717 555 693 q 656 647 656 524 q 656 459 630 418 q 603 377 555 353 q 597 335 618 308 q 640 280 642 217 l 646 121 q 647 80 652 60 q 661 26 684 16 l 684 0 l 564 0 q 560 9 557 24 q 554 39 552 81 l 546 200 q 542 271 494 294 q 466 308 406 308 l 185 308 l 185 0 l 88 0 z"},"T":{"x_min":0,"x_max":611,"ha":611,"o":"m 598 717 l 598 632 l 356 632 l 356 0 l 258 0 l 258 632 l 16 632 l 16 717 z"},"P":{"x_min":0,"x_max":667,"ha":667,"o":"m 85 717 l 408 717 q 504 717 562 663 q 621 609 621 512 q 621 428 569 365 q 517 303 408 303 l 183 303 l 183 0 l 85 0 z m 464 619 q 432 634 376 634 l 183 634 l 183 385 l 376 385 q 441 385 482 413 q 523 441 523 511 q 523 590 464 619 z"},"|":{"x_min":0,"x_max":260,"ha":260,"o":"m 154 0 l 70 0 l 70 728 l 154 728 z"},"t":{"x_min":0,"x_max":278,"ha":278,"o":"m 82 669 l 171 669 l 171 523 l 254 523 l 254 451 l 171 451 l 171 110 q 171 83 189 73 q 200 68 224 68 q 230 68 237 68 q 245 68 254 69 l 254 0 q 239 -4 223 -6 q 207 -8 188 -8 q 126 -8 104 23 q 82 55 82 105 l 82 451 l 11 451 l 11 523 l 82 523 z"},"M":{"x_min":0,"x_max":833,"ha":833,"o":"m 74 717 l 213 717 l 419 111 l 624 717 l 761 717 l 761 0 l 669 0 l 669 423 q 669 445 670 496 q 671 547 671 605 l 466 0 l 370 0 l 164 605 l 164 583 q 164 557 165 503 q 167 449 167 423 l 167 0 l 74 0 z"},"g":{"x_min":0,"x_max":556,"ha":556,"o":"m 356 502 q 381 485 407 452 l 407 518 l 488 518 l 488 42 q 488 -57 459 -115 q 404 -221 252 -221 q 168 -221 110 -183 q 53 -146 46 -65 l 135 -65 q 142 -100 161 -119 q 190 -148 254 -148 q 355 -148 387 -77 q 405 -35 404 73 q 377 33 340 13 q 303 -6 242 -6 q 157 -6 94 54 q 30 114 30 253 q 30 385 94 458 q 158 532 249 532 q 311 532 356 502 z m 265 455 q 172 455 138 368 q 120 321 120 246 q 120 158 156 112 q 192 65 252 65 q 347 65 386 151 q 407 199 407 264 q 407 361 367 408 q 327 455 265 455 z m 259 536 z"},"j":{"x_min":0,"x_max":222,"ha":222,"o":"m 152 616 l 64 616 l 64 717 l 152 717 z m -19 -132 q 41 -130 52 -122 q 64 -113 64 -68 l 64 521 l 152 521 l 152 -78 q 152 -135 134 -163 q 103 -211 17 -211 q 11 -211 4 -210 q -3 -210 -19 -208 z"},"i":{"x_min":0,"x_max":222,"ha":222,"o":"m 64 521 l 154 521 l 154 0 l 64 0 z m 64 717 l 154 717 l 154 618 l 64 618 z"},"y":{"x_min":0,"x_max":500,"ha":500,"o":"m 391 523 l 488 523 q 470 473 406 293 q 358 159 326 74 q 250 -126 218 -170 q 187 -214 111 -214 q 92 -214 82 -213 q 72 -211 58 -208 l 58 -127 q 81 -134 91 -135 q 101 -137 109 -137 q 133 -137 145 -129 q 156 -121 164 -109 q 167 -105 182 -69 q 197 -33 204 -15 l 10 523 l 110 523 l 250 97 z m 250 536 z"},"@":{"x_min":0,"x_max":1015,"ha":1015,"o":"m 534 515 q 478 515 437 449 q 396 383 396 318 q 396 271 417 245 q 438 220 470 220 q 536 220 573 297 q 610 374 610 436 q 610 466 590 490 q 569 515 534 515 z m 198 106 q 110 208 110 342 q 110 501 217 613 q 336 737 537 737 q 711 737 811 649 q 904 566 904 434 q 904 322 837 243 q 771 165 688 165 q 640 165 617 188 q 594 211 594 244 q 594 249 595 255 q 596 261 597 267 q 571 211 532 188 q 492 165 450 165 q 390 165 353 208 q 315 251 315 320 q 315 417 379 491 q 443 565 516 565 q 566 565 598 537 q 631 508 633 467 l 657 549 l 729 549 l 664 335 q 657 311 653 295 q 650 280 650 269 q 650 247 663 237 q 677 227 694 227 q 750 227 794 285 q 838 343 838 437 q 838 550 759 615 q 680 679 546 679 q 360 679 262 571 q 178 479 178 339 q 178 217 258 134 q 352 36 525 36 q 606 36 676 61 q 746 87 804 130 l 836 86 q 792 47 705 13 q 618 -21 513 -21 q 309 -21 198 106 z"},".":{"x_min":0,"x_max":278,"ha":278,"o":"m 85 106 l 188 106 l 188 0 l 85 0 z"},"p":{"x_min":0,"x_max":556,"ha":556,"o":"m 428 265 q 428 327 410 372 q 376 458 285 458 q 194 458 160 367 q 142 318 142 243 q 142 183 160 140 q 194 59 285 59 q 347 59 387 111 q 428 162 428 265 z m 58 521 l 143 521 l 143 451 q 169 487 201 506 q 245 536 305 536 q 394 536 456 468 q 518 399 518 273 q 518 102 429 29 q 372 -18 297 -18 q 238 -18 198 8 q 174 23 146 59 l 146 -208 l 58 -208 z"},"X":{"x_min":0,"x_max":667,"ha":667,"o":"m 138 0 l 21 0 l 277 368 l 37 717 l 158 717 l 341 443 l 523 717 l 639 717 l 398 368 l 650 0 l 530 0 l 336 295 z"},"*":{"x_min":0,"x_max":389,"ha":389,"o":"m 220 717 l 220 608 l 326 646 l 346 591 l 239 557 l 305 465 l 257 430 l 193 525 l 128 430 l 79 465 l 146 557 l 38 591 l 58 646 l 163 607 l 163 717 z"},"Y":{"x_min":0,"x_max":667,"ha":667,"o":"m 21 717 l 134 717 l 340 373 l 546 717 l 660 717 l 389 289 l 389 0 l 292 0 l 292 289 z m 341 717 z"},"c":{"x_min":0,"x_max":500,"ha":500,"o":"m 477 347 l 391 347 q 383 396 355 427 q 328 459 266 459 q 182 459 146 377 q 123 324 123 246 q 123 167 156 114 q 189 60 260 60 q 315 60 347 94 q 379 127 391 185 l 477 185 q 462 81 403 33 q 345 -15 253 -15 q 151 -15 90 60 q 29 135 29 247 q 29 385 96 461 q 163 538 266 538 q 354 538 410 495 q 465 452 477 347 z m 252 536 z"},"!":{"x_min":0,"x_max":278,"ha":278,"o":"m 116 717 l 215 717 l 215 481 l 191 171 l 141 171 l 116 481 z m 116 102 l 213 102 l 213 0 l 116 0 z"},"/":{"x_min":0,"x_max":278,"ha":278,"o":"m 228 717 l 302 717 l 74 0 l 0 0 z"},"[":{"x_min":0,"x_max":278,"ha":278,"o":"m 62 722 l 250 722 l 250 650 l 146 650 l 146 -125 l 250 -125 l 250 -197 l 62 -197 z"},"6":{"x_min":0,"x_max":556,"ha":556,"o":"m 502 516 l 415 516 q 407 558 390 581 q 358 625 294 625 q 220 625 177 557 q 133 489 128 362 q 159 406 205 428 q 247 448 298 448 q 386 448 452 392 q 517 335 517 224 q 517 129 455 55 q 393 -18 278 -18 q 180 -18 109 56 q 38 131 38 307 q 38 438 69 528 q 130 702 292 702 q 410 702 456 641 q 502 581 502 516 z m 424 217 q 424 271 394 319 q 363 368 282 368 q 225 368 182 330 q 140 292 140 217 q 140 150 178 105 q 217 60 286 60 q 355 60 390 107 q 424 153 424 217 z"},"r":{"x_min":0,"x_max":333,"ha":333,"o":"m 67 523 l 150 523 l 150 433 q 161 459 201 497 q 241 535 293 535 q 295 535 301 534 q 307 534 321 532 l 321 439 q 313 441 307 441 q 300 442 292 442 q 226 442 190 399 q 155 356 155 301 l 155 0 l 67 0 z"},"2":{"x_min":0,"x_max":556,"ha":556,"o":"m 195 279 l 289 333 q 352 370 377 396 q 417 436 417 488 q 417 549 381 585 q 344 621 283 621 q 193 621 158 553 q 140 516 138 451 l 48 451 q 50 542 82 600 q 139 702 284 702 q 404 702 459 637 q 515 572 515 492 q 515 408 456 349 q 421 314 333 265 l 266 228 q 218 201 191 177 q 142 135 129 83 l 511 83 l 511 0 l 31 0 q 36 90 69 157 q 101 224 195 279 z"},"{":{"x_min":0,"x_max":334,"ha":334,"o":"m 191 -2 q 191 -78 229 -110 q 267 -142 312 -147 l 312 -204 q 226 -195 169 -153 q 112 -111 112 -14 l 112 86 q 112 140 95 170 q 65 227 -21 236 l -21 292 q 65 302 95 355 q 112 385 112 441 l 112 521 q 112 612 152 666 q 191 720 312 730 l 312 674 q 234 667 206 605 q 191 571 191 510 l 191 456 q 191 382 173 343 q 140 272 46 264 q 140 255 173 182 q 191 141 191 71 z"},"9":{"x_min":0,"x_max":556,"ha":556,"o":"m 133 169 q 137 96 189 68 q 216 54 250 54 q 312 54 357 106 q 401 159 420 319 q 391 273 347 254 q 304 235 254 235 q 153 235 94 298 q 36 361 36 460 q 36 556 94 628 q 152 700 265 700 q 418 700 476 562 q 508 487 508 373 q 508 245 470 146 q 406 -20 253 -20 q 150 -20 97 34 q 44 88 44 169 z m 405 467 q 405 544 366 582 q 327 620 267 620 q 203 620 165 577 q 127 534 127 461 q 127 393 160 353 q 193 312 266 312 q 318 312 362 347 q 405 381 405 467 z"}," ":{"x_min":0,"x_max":278,"ha":278,"o":""},"I":{"x_min":0,"x_max":278,"ha":278,"o":"m 98 717 l 196 717 l 196 0 l 98 0 z"},"H":{"x_min":0,"x_max":722,"ha":722,"o":"m 79 717 l 177 717 l 177 421 l 550 421 l 550 717 l 648 717 l 648 0 l 550 0 l 550 335 l 177 335 l 177 0 l 79 0 z"},"4":{"x_min":0,"x_max":556,"ha":556,"o":"m 331 248 l 331 564 l 106 248 z m 332 0 l 332 171 l 25 171 l 25 257 l 346 701 l 420 701 l 420 248 l 523 248 l 523 171 l 420 171 l 420 0 z"},"~":{"x_min":0,"x_max":584,"ha":584,"o":"m 190 335 q 218 332 244 321 l 353 279 q 377 269 394 264 q 419 257 439 257 q 475 257 500 285 q 524 313 533 354 l 590 354 q 578 285 542 228 q 506 170 433 170 q 411 170 381 179 q 363 185 329 198 l 229 236 q 210 243 191 247 q 171 251 158 251 q 117 251 94 219 q 80 201 66 156 l 9 156 q 17 197 27 225 q 37 254 61 290 q 82 314 105 326 q 129 338 161 338 q 175 338 190 335 z"},"D":{"x_min":0,"x_max":722,"ha":722,"o":"m 352 83 q 401 83 433 93 q 489 112 525 167 q 554 210 567 278 q 574 318 574 353 q 574 486 521 560 q 468 634 351 634 l 178 634 l 178 83 z m 81 717 l 371 717 q 519 717 601 612 q 673 518 673 370 q 673 255 630 163 q 555 0 370 0 l 81 0 z"},"^":{"x_min":0,"x_max":469,"ha":469,"o":"m 305 717 l 478 296 l 398 296 l 268 619 l 139 296 l 59 296 l 230 717 z"},"0":{"x_min":0,"x_max":556,"ha":556,"o":"m 467 587 q 514 501 514 351 q 514 208 471 115 q 410 -19 270 -19 q 144 -19 83 90 q 31 182 31 335 q 31 455 62 540 q 120 699 271 699 q 406 699 467 587 z m 419 347 q 419 466 390 543 q 360 620 276 620 q 198 620 162 547 q 126 474 126 332 q 126 225 149 160 q 185 61 270 61 q 338 61 378 122 q 419 182 419 347 z"},"F":{"x_min":0,"x_max":611,"ha":611,"o":"m 85 717 l 583 717 l 583 629 l 183 629 l 183 412 l 535 412 l 535 326 l 183 326 l 183 0 l 85 0 z"},"`":{"x_min":0,"x_max":333,"ha":333,"o":"m 216 592 l 149 592 l 19 733 l 127 733 z"},"k":{"x_min":0,"x_max":500,"ha":500,"o":"m 62 717 l 147 717 l 147 301 l 373 523 l 485 523 l 285 327 l 496 0 l 384 0 l 221 264 l 147 196 l 147 0 l 62 0 z"},"u":{"x_min":0,"x_max":556,"ha":556,"o":"m 152 523 l 152 176 q 152 136 165 110 q 188 63 252 63 q 344 63 377 146 q 396 189 396 266 l 396 523 l 483 523 l 483 0 l 400 0 l 401 77 q 384 47 359 27 q 309 -14 237 -14 q 125 -14 84 61 q 62 101 62 167 l 62 523 z m 273 536 z"},"]":{"x_min":0,"x_max":278,"ha":278,"o":"m 23 -125 l 127 -125 l 127 650 l 23 650 l 23 722 l 210 722 l 210 -197 l 23 -197 z"},"U":{"x_min":0,"x_max":722,"ha":722,"o":"m 182 717 l 182 274 q 182 196 211 144 q 254 66 357 66 q 481 66 525 150 q 549 196 549 274 l 549 717 l 648 717 l 648 314 q 648 182 612 111 q 547 -19 365 -19 q 184 -19 119 111 q 83 182 83 314 l 83 717 z m 366 717 z"},"o":{"x_min":0,"x_max":556,"ha":556,"o":"m 424 270 q 424 343 401 389 q 364 461 273 461 q 192 461 156 400 q 119 338 119 251 q 119 168 156 112 q 192 57 272 57 q 359 57 392 123 q 424 189 424 270 z m 516 272 q 516 146 455 63 q 393 -19 264 -19 q 156 -19 92 54 q 29 127 29 250 q 29 382 96 460 q 163 538 275 538 q 376 538 446 471 q 516 403 516 272 z m 272 536 z"},"N":{"x_min":0,"x_max":722,"ha":722,"o":"m 76 717 l 191 717 l 553 136 l 553 717 l 646 717 l 646 0 l 537 0 l 169 581 l 169 0 l 76 0 z m 354 717 z"},"+":{"x_min":0,"x_max":584,"ha":584,"o":"m 45 214 l 45 296 l 258 296 l 258 510 l 341 510 l 341 296 l 554 296 l 554 214 l 341 214 l 341 0 l 258 0 l 258 214 z"},"G":{"x_min":0,"x_max":778,"ha":778,"o":"m 561 697 q 668 641 692 500 l 596 500 q 578 579 523 615 q 468 650 384 650 q 284 650 216 576 q 148 501 148 353 q 148 225 204 145 q 260 64 387 64 q 484 64 548 121 q 612 177 613 303 l 389 303 l 389 384 l 704 384 l 704 0 l 641 0 l 618 92 q 568 38 530 17 q 466 -19 368 -19 q 240 -19 148 63 q 48 167 48 348 q 48 528 146 634 q 239 736 386 736 q 487 736 561 697 z m 370 737 z"},"q":{"x_min":0,"x_max":556,"ha":556,"o":"m 140 141 q 174 59 261 59 q 353 59 387 145 q 406 192 406 266 q 406 334 385 379 q 350 457 260 457 q 203 457 162 407 q 121 358 121 254 q 121 187 140 141 z m 360 502 q 385 484 407 450 l 407 523 l 491 523 l 491 -208 l 402 -208 l 402 60 q 380 25 342 4 q 303 -17 245 -17 q 161 -17 95 49 q 29 114 29 248 q 29 374 91 454 q 153 535 251 535 q 316 535 360 502 z"},"d":{"x_min":0,"x_max":556,"ha":556,"o":"m 270 58 q 331 58 370 111 q 410 163 410 261 q 410 360 369 408 q 329 456 269 456 q 203 456 161 405 q 120 354 120 255 q 120 171 156 115 q 191 58 270 58 z m 353 507 q 376 492 406 456 l 406 720 l 491 720 l 491 0 l 412 0 l 412 73 q 381 24 339 3 q 297 -19 243 -19 q 155 -19 91 55 q 27 128 27 250 q 27 365 86 448 q 144 532 252 532 q 312 532 353 507 z"},"1":{"x_min":0,"x_max":556,"ha":556,"o":"m 96 495 l 96 562 q 191 572 229 594 q 266 615 285 696 l 354 696 l 354 0 l 260 0 l 260 495 z"},"5":{"x_min":0,"x_max":556,"ha":556,"o":"m 124 178 q 132 103 193 74 q 225 60 266 60 q 344 60 381 109 q 419 159 419 220 q 419 293 374 333 q 330 373 267 373 q 222 373 189 355 q 157 338 134 307 l 58 311 l 111 688 l 474 688 l 474 603 l 177 603 l 147 408 q 171 427 193 436 q 232 452 284 452 q 380 452 447 390 q 514 328 514 233 q 514 134 452 58 q 391 -18 257 -18 q 171 -18 106 31 q 40 79 32 178 z"}}}
